<svg width="106" height="40" fill="none" xmlns="http://www.w3.org/2000/svg"><g clip-path="url(#clip0_101_2)" fill="#003B56"><path d="M14.854 19.84a4.755 4.755 0 01-4.774 4.775 4.755 4.755 0 01-4.775-4.774 4.755 4.755 0 014.775-4.775h4.774v4.775zM20.16.213h-5.305v9.655H10.08a9.962 9.962 0 00-9.974 9.974 9.962 9.962 0 009.974 9.973 9.962 9.962 0 009.973-9.973V9.867l.106-9.655zm52.731 24.402a4.755 4.755 0 004.775-4.774 4.755 4.755 0 00-4.775-4.775 4.755 4.755 0 00-4.774 4.775c.106 2.652 2.228 4.774 4.774 4.774zm-9.867-4.774a9.962 9.962 0 019.973-9.974 9.962 9.962 0 019.974 9.974 9.962 9.962 0 01-9.974 9.973 9.962 9.962 0 01-9.973-9.973zm36.605-.001c0-2.546-2.122-4.668-4.669-4.668-2.546 0-4.668 2.122-4.668 4.669v9.549h-5.2v-9.55a9.962 9.962 0 019.974-9.973 9.962 9.962 0 019.974 9.974v9.549h-5.2c-.211 0-.211-8.276-.211-9.55zm-48.807-3.394c-.742-.53-.53-1.38.743-1.698 1.592-.424 4.35-.106 6.684.955l2.44-3.395c-1.06-.85-3.395-2.016-6.79-2.228 0 0-5.73-.743-8.063 3.607 0 0-2.016 4.032 2.016 6.578 2.44 1.486 6.684 2.122 8.063 2.759 1.061.636.743 1.804-.849 2.122-2.758.636-6.366-.955-7.533-1.804l-2.546 3.502c1.697 1.273 3.82 2.44 7.215 2.97 0 0 5.41.955 8.382-2.758.53-.637 2.97-5.2-1.91-7.852-2.547-1.38-6.578-2.016-7.852-2.758zM26.42 33.21c.211.106 2.652 1.803 4.986 1.803 5.73.106 6.048-5.835 6.048-7.215-1.061 1.168-3.29 1.91-4.669 1.91-5.517 0-9.867-4.244-9.867-9.761v-9.655h5.199v9.655c0 2.546 2.122 4.668 4.668 4.668 2.547 0 4.669-2.122 4.669-4.668v-9.655h5.199v9.655c0 8.594.424 17.4-7.958 19.416-6.26 1.486-10.716-2.44-11.035-2.652l2.76-3.502z"/></g><defs><clipPath id="clip0_101_2"><path fill="#fff" d="M0 0h105.04v40H0z"/></clipPath></defs></svg>