<svg width="20" height="20" fill="none" xmlns="http://www.w3.org/2000/svg"><path fill-rule="evenodd" clip-rule="evenodd" d="M15.453 13.662h.122c1.028.17 1.435 1.623 1.285 2.508a3.062 3.062 0 01-.75 1.454c-1.093 1.37-1.535 1.584-2.914 1.584H6.382c-1.429 0-1.843-.3-2.858-1.584a3.207 3.207 0 01-.714-1.454c-.128-.915.243-2.323 1.3-2.562.11-.011.22-.011.329 0a8.752 8.752 0 010-1.877c.014-.1.057-.323.121-.607.023-.085.057-.224.085-.366.028-.141.05-.285.05-.38.012-.039.025-.075.037-.108a.453.453 0 00.035-.13c.287-1.232.377-2.507.265-3.77A2.235 2.235 0 015.2 5.298c.143-.335.366-.623.646-.836.07-.032.203-.081.357-.119.12-.028.252-.05.379-.05h.535a.63.63 0 01-.1-.492l.465-2.216a.88.88 0 01.3-.423A.782.782 0 018.253 1h3.179a.726.726 0 01.475.151c.138.106.24.258.289.433l.471 2.231a.586.586 0 01-.085.477h.821c.822 0 1.493 1 1.429 2.13a16.24 16.24 0 00.107 4.1c.024.095.043.19.057.285a3.7 3.7 0 01.1.616c.03.177.045.358.043.538v.07c.007.184.073.47.145.78.065.282.135.586.169.85z" fill="#003B56"/><path d="M7.774 9.04a4.89 4.89 0 001.85.322c1.315 0 2.858-.407 2.858-1.538v-2.7a.4.4 0 00-.105-.272.345.345 0 00-.253-.113.345.345 0 00-.252.113.4.4 0 00-.105.272v2.7c0 .384-.878.815-2.143.815-1.264 0-2.142-.446-2.142-.823V5.124a.4.4 0 00-.105-.272.345.345 0 00-.253-.113.345.345 0 00-.252.113.4.4 0 00-.105.272v2.7c0 .292.129.854 1.007 1.215zm4.686 4.938v-4.6h-.686v4.6H7.46v-4.6h-.686v4.6H5.367v.738h8.515v-.738H12.46z" fill="#FEFEFE"/></svg>